<?xml version="1.0" encoding="utf-8"?>
<!-- Generator: Adobe Illustrator 27.7.0, SVG Export Plug-In . SVG Version: 6.00 Build 0)  -->
<svg version="1.1" id="Camada_1" xmlns="http://www.w3.org/2000/svg" xmlns:xlink="http://www.w3.org/1999/xlink" x="0px" y="0px"
	 viewBox="0 0 300 300" style="enable-background:new 0 0 300 300;" xml:space="preserve">
<style type="text/css">
	.st0{fill-rule:evenodd;clip-rule:evenodd;fill:#410099;}
	.st1{fill-rule:evenodd;clip-rule:evenodd;fill:#00EAFF;}
</style>
<path class="st0" d="M50,0h200c27.6,0,50,22.4,50,50v200c0,27.6-22.4,50-50,50H50c-27.6,0-50-22.4-50-50V50C0,22.4,22.4,0,50,0z"/>
<path class="st1" d="M241.4,117.9c-0.6-7.4-5.1-11.1-13.7-11.1h-46.5c-5.9,0-8.9,3.2-9.7,4.2h-0.1l-13.3,14.5v-0.1L141.6,110l0,0
	c-2.3-2.1-5.8-3.2-10.4-3.2H87.1c-2.4,0-4.7,0.5-6.7,1.6c-2.6,1.4-4.2,3.6-5,6.4l-15.3,55.5c-3.2,11.6-2.4,23,12.2,22.9h46.5
	c5.9,0,9-3.2,9.8-4.2h0.1l11.8-12.8c0.9-1,2.4-1,3.4-0.1l14.7,13.7l0,0c2.3,2.1,5.8,3.1,10.4,3.1H213c2.4,0,4.7-0.5,6.7-1.6
	c2.5-1.4,4.2-3.6,5-6.4l15.3-55.3C241.2,124.9,241.6,121,241.4,117.9z M85.1,165.5l8.7-31.9c1-3.3,2.1-6.4,7.9-6.4h28.5
	c0.6,0,1.2,0.2,1.6,0.6l11.2,10.4c1,0.9,1,2.4,0.1,3.4l-26.6,29.1c-1.9,2.1-5.2,2.1-5.3,2.1H88.9C88.9,172.8,82.8,172.9,85.1,165.5
	L85.1,165.5 M188.8,127.1h22.4c5.9,0,4.5,4.4,3.8,7.3l0,0l-8.7,31.8c-1,3.3-2.1,6.4-7.9,6.4h-28.5c-0.6,0-1.2-0.2-1.6-0.6L157,161.6
	c-1-0.9-1-2.4-0.1-3.4l26.6-29.1C183.5,129.2,185,127.1,188.8,127.1z"/>
</svg>
