<?xml version="1.0" encoding="utf-8"?>
<!-- Generator: Adobe Illustrator 27.7.0, SVG Export Plug-In . SVG Version: 6.00 Build 0)  -->
<svg version="1.1" id="Camada_1" xmlns="http://www.w3.org/2000/svg" xmlns:xlink="http://www.w3.org/1999/xlink" x="0px" y="0px"
	 viewBox="0 0 200 200" style="enable-background:new 0 0 200 200;" xml:space="preserve">
<style type="text/css">
	.st0{fill-rule:evenodd;clip-rule:evenodd;fill:#410099;}
	.st1{fill-rule:evenodd;clip-rule:evenodd;fill:#00EAFF;}
</style>
<path class="st0" d="M33.3,0h133.3C185.1,0,200,14.9,200,33.3v133.3c0,18.4-14.9,33.3-33.3,33.3H33.3C14.9,200,0,185.1,0,166.7V33.3
	C0,14.9,14.9,0,33.3,0z"/>
<path class="st1" d="M160.9,78.6c-0.4-4.9-3.4-7.4-9.1-7.4h-31c-3.9,0-6,2.1-6.5,2.8h0l-8.9,9.7v0l-11-10.3l0,0
	c-1.5-1.4-3.8-2.1-6.9-2.1H58c-1.6,0-3.1,0.4-4.5,1.1c-1.7,1-2.8,2.4-3.3,4.3l-10.2,37c-2.1,7.7-1.6,15.4,8.2,15.2h31
	c3.9,0,6-2.1,6.5-2.8h0l7.8-8.5c0.6-0.6,1.6-0.7,2.3-0.1l9.8,9.1l0,0c1.5,1.4,3.8,2.1,6.9,2.1H142c1.6,0,3.1-0.4,4.4-1.1
	c1.7-1,2.8-2.4,3.3-4.3L160,86.4C160.8,83.3,161.1,80.7,160.9,78.6z M56.7,110.3l5.8-21.3c0.7-2.2,1.4-4.3,5.3-4.3h19
	c0.4,0,0.8,0.2,1.1,0.4l7.5,6.9c0.6,0.6,0.7,1.6,0.1,2.3l-17.8,19.4c-1.3,1.4-3.5,1.4-3.5,1.4H59.3
	C59.3,115.2,55.2,115.2,56.7,110.3L56.7,110.3 M125.8,84.7h14.9c3.9,0,3,2.9,2.5,4.9l0,0l-5.8,21.2c-0.7,2.2-1.4,4.3-5.3,4.3h-19
	c-0.4,0-0.8-0.2-1.1-0.4l-7.4-6.9c-0.6-0.6-0.7-1.6-0.1-2.2l17.7-19.4C122.3,86.1,123.3,84.7,125.8,84.7z"/>
</svg>
